<?xml version="1.0" standalone="no"?>
<!DOCTYPE svg PUBLIC "-//W3C//DTD SVG 20010904//EN"
 "http://www.w3.org/TR/2001/REC-SVG-20010904/DTD/svg10.dtd">
<svg version="1.0" xmlns="http://www.w3.org/2000/svg"
 width="250.000000pt" height="250.000000pt" viewBox="0 0 250.000000 250.000000"
 preserveAspectRatio="xMidYMid meet">
<metadata>
Created by potrace 1.14, written by Peter Selinger 2001-2017
</metadata>
<g transform="translate(0.000000,250.000000) scale(0.100000,-0.100000)"
fill="#000000" stroke="none">
<path d="M1085 2491 l-40 -6 -3 -477 -2 -478 715 0 715 0 -6 28 c-4 15 -20 65
-37 112 -150 431 -547 756 -1001 819 -81 11 -272 13 -341 2z"/>
<path d="M800 2417 c-47 -18 -105 -44 -130 -57 l-45 -25 -3 -473 -2 -472 -308
-2 -307 -3 0 -135 0 -135 307 -3 308 -2 2 -472 3 -472 40 -23 c37 -21 159 -71
213 -88 l22 -6 0 530 0 531 798 2 797 3 0 135 0 135 -797 3 -798 2 0 530 c0
292 -3 530 -7 530 -5 -1 -46 -15 -93 -33z"/>
<path d="M369 2133 c-102 -104 -186 -218 -242 -328 -25 -50 -78 -195 -91 -247
l-6 -28 230 0 230 0 0 355 c0 195 -3 355 -7 355 -4 0 -55 -48 -114 -107z"/>
<path d="M36 943 c13 -53 66 -198 91 -248 41 -81 126 -205 185 -271 55 -61
164 -164 173 -164 3 0 5 160 5 355 l0 355 -230 0 -230 0 6 -27z"/>
<path d="M1040 496 c0 -339 3 -477 11 -482 22 -13 274 -17 362 -5 464 62 862
384 1014 821 17 47 33 97 37 113 l6 27 -715 0 -715 0 0 -474z"/>
</g>
</svg>
